<svg xmlns="http://www.w3.org/2000/svg" viewBox="0 0 78.36 78.52"><defs><style>.cls-1{fill:#fff;}.cls-2{fill:#a62220;}.cls-3{fill:#252524;}</style></defs><title>UDFldpi</title><g id="katman_2" data-name="katman 2"><g id="katman_1-2" data-name="katman 1"><circle class="cls-1" cx="37.4" cy="37.1" r="34.44"/><path class="cls-2" d="M39.18,0a39.18,39.18,0,0,0,0,78.36c2,0,8.41.16,9.78.16H70.8c4.4,0,7.34-3.24,7.34-7.63L78.29,49c0-1.33.07-7.76.07-9.86A39.18,39.18,0,0,0,39.18,0ZM33.45,61.46A26.65,26.65,0,1,1,60.09,34.81,26.65,26.65,0,0,1,33.45,61.46Z"/><circle class="cls-1" cx="63.29" cy="63.92" r="9.11"/><circle class="cls-3" cx="63.24" cy="64.08" r="4.75"/><path d="M21.13,28.21V37a4,4,0,1,1-7.93,0V28.21H10.3v8.6a7.1,7.1,0,0,0,14.2,0v-8.6Z"/><path d="M33.56,28.28h-.17l-.36,0-.36,0h-6.2v3.79h0v6.84h2.58v-.74h0V33.45h0V31H33l.23,0,.23,0h.11a4.78,4.78,0,0,1,0,9.54H26.47v2.76h7.09v0a7.54,7.54,0,0,0,0-15Z"/><path d="M56.62,41.19v-.57l-6.68.06h0c-3.75-.07-4.87-2-4.9-4.75s1.23-5,5.14-5l6.32,0v-.49h0l0-2.14-5.82,0c-4.58.06-8.25,3.43-8.2,7.74s3.57,7.22,8,7.35h.41l.38,0,5.44-.07,0-2.07Z"/><path d="M56.64,34.5H48.28a1.47,1.47,0,0,0,0,2.93h8.36Z"/></g></g></svg>