<svg xmlns="http://www.w3.org/2000/svg" viewBox="0 0 430.14 352.44"><defs><style>.cls-1{fill:#fff;}</style></defs><title>Varlık 2ldpi</title><g id="katman_2" data-name="katman 2"><g id="katman_1-2" data-name="katman 1"><path class="cls-1" d="M378.25,116.66A84.34,84.34,0,0,0,255.63,58.78a111.2,111.2,0,0,0-209.27,52.4c0,2.63.1,5.24.28,7.82A80.28,80.28,0,0,0,80.28,272.17l125.42-.43.43-96.38L154.19,228l-12.45-12.88,71.44-73,73.22,73-11.26,13-52.7-52.7v96.26H205.7v80.82h16.74v-80.7l139.84.43c37.76-6.34,67.86-41.15,67.86-80.71A79.86,79.86,0,0,0,378.25,116.66Z"/></g></g></svg>